<mxfile host="www.draw.io" modified="2020-01-06T13:21:03.366Z" agent="Mozilla/5.0 (Macintosh; Intel Mac OS X 10_14_0) AppleWebKit/537.36 (KHTML, like Gecko) Chrome/78.0.3904.97 Safari/537.36" etag="fOKxZAexJaWCpMpL9Z-U" version="12.4.8" type="github">
  <diagram id="pLV6onTq9MskJ5aBiYJS" name="第 1 页">
    <mxGraphModel dx="1554" dy="803" grid="0" gridSize="10" guides="1" tooltips="1" connect="1" arrows="1" fold="1" page="1" pageScale="1" pageWidth="10000" pageHeight="10000" math="0" shadow="0">
      <root>
        <mxCell id="0"/>
        <mxCell id="1" parent="0"/>
        <mxCell id="ddoem9WI20h3io4MgGZ3-11" style="edgeStyle=orthogonalEdgeStyle;rounded=0;orthogonalLoop=1;jettySize=auto;html=1;exitX=1;exitY=0.5;exitDx=0;exitDy=0;entryX=0;entryY=0.5;entryDx=0;entryDy=0;comic=1;strokeWidth=2;" edge="1" parent="1" source="ddoem9WI20h3io4MgGZ3-3" target="ddoem9WI20h3io4MgGZ3-9">
          <mxGeometry relative="1" as="geometry"/>
        </mxCell>
        <mxCell id="ddoem9WI20h3io4MgGZ3-3" value="直播系统" style="html=1;whiteSpace=wrap;comic=1;strokeWidth=2;fontFamily=Comic Sans MS;fontStyle=1;fillColor=#f8cecc;strokeColor=#b85450;" vertex="1" parent="1">
          <mxGeometry x="386" y="321" width="120" height="60" as="geometry"/>
        </mxCell>
        <mxCell id="ddoem9WI20h3io4MgGZ3-4" value="" style="rounded=0;comic=1;strokeWidth=2;endArrow=blockThin;html=1;fontFamily=Comic Sans MS;fontStyle=1;entryX=0;entryY=0.5;entryDx=0;entryDy=0;exitX=1;exitY=0.5;exitDx=0;exitDy=0;" edge="1" parent="1" source="ddoem9WI20h3io4MgGZ3-5" target="ddoem9WI20h3io4MgGZ3-3">
          <mxGeometry width="50" height="50" relative="1" as="geometry">
            <mxPoint x="254" y="351" as="sourcePoint"/>
            <mxPoint x="219" y="378" as="targetPoint"/>
          </mxGeometry>
        </mxCell>
        <mxCell id="ddoem9WI20h3io4MgGZ3-5" value="" style="ellipse;whiteSpace=wrap;html=1;aspect=fixed;fillColor=#fff2cc;strokeColor=#d6b656;" vertex="1" parent="1">
          <mxGeometry x="274" y="335.5" width="31" height="31" as="geometry"/>
        </mxCell>
        <mxCell id="ddoem9WI20h3io4MgGZ3-8" value="&lt;font style=&quot;font-size: 20px&quot;&gt;春节&lt;/font&gt;" style="text;strokeColor=none;fillColor=none;html=1;fontSize=24;fontStyle=1;verticalAlign=middle;align=center;" vertex="1" parent="1">
          <mxGeometry x="396" y="273" width="100" height="40" as="geometry"/>
        </mxCell>
        <mxCell id="ddoem9WI20h3io4MgGZ3-14" style="edgeStyle=orthogonalEdgeStyle;rounded=0;comic=1;orthogonalLoop=1;jettySize=auto;html=1;exitX=1;exitY=0.5;exitDx=0;exitDy=0;entryX=0;entryY=0.5;entryDx=0;entryDy=0;strokeWidth=2;" edge="1" parent="1" source="ddoem9WI20h3io4MgGZ3-9" target="ddoem9WI20h3io4MgGZ3-12">
          <mxGeometry relative="1" as="geometry"/>
        </mxCell>
        <mxCell id="ddoem9WI20h3io4MgGZ3-9" value="社区团购" style="html=1;whiteSpace=wrap;comic=1;strokeWidth=2;fontFamily=Comic Sans MS;fontStyle=1;fillColor=#d5e8d4;strokeColor=#82b366;" vertex="1" parent="1">
          <mxGeometry x="599" y="321" width="120" height="60" as="geometry"/>
        </mxCell>
        <mxCell id="ddoem9WI20h3io4MgGZ3-10" value="&lt;font style=&quot;font-size: 20px&quot;&gt;2.29&lt;/font&gt;" style="text;strokeColor=none;fillColor=none;html=1;fontSize=24;fontStyle=1;verticalAlign=middle;align=center;" vertex="1" parent="1">
          <mxGeometry x="609" y="273" width="100" height="40" as="geometry"/>
        </mxCell>
        <mxCell id="ddoem9WI20h3io4MgGZ3-16" style="edgeStyle=orthogonalEdgeStyle;rounded=0;comic=1;orthogonalLoop=1;jettySize=auto;html=1;exitX=1;exitY=0.5;exitDx=0;exitDy=0;entryX=0;entryY=0.5;entryDx=0;entryDy=0;strokeWidth=2;" edge="1" parent="1" source="ddoem9WI20h3io4MgGZ3-12" target="ddoem9WI20h3io4MgGZ3-15">
          <mxGeometry relative="1" as="geometry"/>
        </mxCell>
        <mxCell id="ddoem9WI20h3io4MgGZ3-12" value="小B赋能 系统" style="html=1;whiteSpace=wrap;comic=1;strokeWidth=2;fontFamily=Comic Sans MS;fontStyle=1;fillColor=#fff2cc;strokeColor=#d6b656;" vertex="1" parent="1">
          <mxGeometry x="812" y="321" width="120" height="60" as="geometry"/>
        </mxCell>
        <mxCell id="ddoem9WI20h3io4MgGZ3-13" value="&lt;font style=&quot;font-size: 20px&quot;&gt;3.30&lt;br&gt;&lt;/font&gt;" style="text;strokeColor=none;fillColor=none;html=1;fontSize=24;fontStyle=1;verticalAlign=middle;align=center;" vertex="1" parent="1">
          <mxGeometry x="822" y="281" width="100" height="40" as="geometry"/>
        </mxCell>
        <mxCell id="ddoem9WI20h3io4MgGZ3-18" style="edgeStyle=orthogonalEdgeStyle;rounded=0;comic=1;orthogonalLoop=1;jettySize=auto;html=1;exitX=1;exitY=0.5;exitDx=0;exitDy=0;strokeWidth=2;" edge="1" parent="1" source="ddoem9WI20h3io4MgGZ3-15">
          <mxGeometry relative="1" as="geometry">
            <mxPoint x="1219" y="351" as="targetPoint"/>
          </mxGeometry>
        </mxCell>
        <mxCell id="ddoem9WI20h3io4MgGZ3-15" value="C端赋能 系统" style="html=1;whiteSpace=wrap;comic=1;strokeWidth=2;fontFamily=Comic Sans MS;fontStyle=1;fillColor=#dae8fc;strokeColor=#6c8ebf;" vertex="1" parent="1">
          <mxGeometry x="1025" y="321" width="120" height="60" as="geometry"/>
        </mxCell>
        <mxCell id="ddoem9WI20h3io4MgGZ3-17" value="&lt;font style=&quot;font-size: 20px&quot;&gt;4.28&lt;br&gt;&lt;/font&gt;" style="text;strokeColor=none;fillColor=none;html=1;fontSize=24;fontStyle=1;verticalAlign=middle;align=center;" vertex="1" parent="1">
          <mxGeometry x="1035" y="281" width="100" height="40" as="geometry"/>
        </mxCell>
        <mxCell id="ddoem9WI20h3io4MgGZ3-19" value="云&lt;br&gt;直&lt;br&gt;播" style="html=1;whiteSpace=wrap;comic=1;strokeWidth=2;fontFamily=Comic Sans MS;fontStyle=1;" vertex="1" parent="1">
          <mxGeometry x="359" y="439" width="41" height="92" as="geometry"/>
        </mxCell>
        <mxCell id="ddoem9WI20h3io4MgGZ3-20" value="直&lt;br&gt;播&lt;br&gt;分&lt;br&gt;发" style="html=1;whiteSpace=wrap;comic=1;strokeWidth=2;fontFamily=Comic Sans MS;fontStyle=1;" vertex="1" parent="1">
          <mxGeometry x="425.5" y="439" width="41" height="92" as="geometry"/>
        </mxCell>
        <mxCell id="ddoem9WI20h3io4MgGZ3-21" value="直&lt;br&gt;播&lt;br&gt;分&lt;br&gt;发" style="html=1;whiteSpace=wrap;comic=1;strokeWidth=2;fontFamily=Comic Sans MS;fontStyle=1;" vertex="1" parent="1">
          <mxGeometry x="492" y="439" width="41" height="92" as="geometry"/>
        </mxCell>
      </root>
    </mxGraphModel>
  </diagram>
</mxfile>
